# xmcd CD database file
#
# Track frame offsets:
#	150
#	28188
#	50917
#	70045
#	96245
#	120775
#	138283
#	159766
#	192155
#	220986
#
# Disc length: 3288 seconds
#
# Revision: 0
# Processed by: cddbd v1.5.2PL0 Copyright (c) Steve Scherf et al.
# Submitted via: CDex 1.70beta2
#
DISCID=850cd60a
DTITLE=Alstroemeria Records - For Your Pieces
DYEAR=2008
DGENRE=東方アレンジ
TTITLE0=Strawberry Crisis!!
TTITLE1=Invisible Full Moon
TTITLE2=Cloudy Baby
TTITLE3=Necro Fantasia
TTITLE4=For Your Pieces
TTITLE5=Subterranean Animism.
TTITLE6=Astro Toilet
TTITLE7=Shinto Shrine (Ryo Ohnuki Remix)
TTITLE8=Alice Maestera (Ryo Ohnuki Remix)
TTITLE9=Necro Fantasia (REDALiCE Remix)
EXTD=YEAR: 2008
EXTT0=
EXTT1=
EXTT2=
EXTT3=
EXTT4=
EXTT5=
EXTT6=
EXTT7=
EXTT8=
EXTT9=
PLAYORDER=
